<?xml version="1.0" encoding="UTF-8" standalone="no"?>
<!-- Created with Inkscape (http://www.inkscape.org/) -->

<svg
   xmlns:dc="http://purl.org/dc/elements/1.1/"
   xmlns:cc="http://creativecommons.org/ns#"
   xmlns:rdf="http://www.w3.org/1999/02/22-rdf-syntax-ns#"
   xmlns:svg="http://www.w3.org/2000/svg"
   xmlns="http://www.w3.org/2000/svg"
   xmlns:sodipodi="http://sodipodi.sourceforge.net/DTD/sodipodi-0.dtd"
   xmlns:inkscape="http://www.inkscape.org/namespaces/inkscape"
   width="112.90009mm"
   height="67.246666mm"
   viewBox="0 0 400.03967 238.27559"
   id="svg2"
   version="1.1"
   inkscape:version="0.91 r13725"
   sodipodi:docname="postgresql-index-access-method.svg">
  <defs
     id="defs4">
    <marker
       inkscape:isstock="true"
       style="overflow:visible"
       id="marker8735"
       refX="0"
       refY="0"
       orient="auto"
       inkscape:stockid="Arrow1Mend">
      <path
         inkscape:connector-curvature="0"
         transform="matrix(-0.4,0,0,-0.4,-4,0)"
         style="fill:#000000;fill-opacity:1;fill-rule:evenodd;stroke:#000000;stroke-width:1pt;stroke-opacity:1"
         d="M 0,0 5,-5 -12.5,0 5,5 0,0 Z"
         id="path8737" />
    </marker>
    <marker
       inkscape:stockid="Arrow1Mend"
       orient="auto"
       refY="0"
       refX="0"
       id="Arrow1Mend"
       style="overflow:visible"
       inkscape:isstock="true"
       inkscape:collect="always">
      <path
         id="path4194"
         d="M 0,0 5,-5 -12.5,0 5,5 0,0 Z"
         style="fill:#000000;fill-opacity:1;fill-rule:evenodd;stroke:#000000;stroke-width:1pt;stroke-opacity:1"
         transform="matrix(-0.4,0,0,-0.4,-4,0)"
         inkscape:connector-curvature="0" />
    </marker>
    <marker
       inkscape:stockid="Arrow1Mstart"
       orient="auto"
       refY="0"
       refX="0"
       id="Arrow1Mstart"
       style="overflow:visible"
       inkscape:isstock="true">
      <path
         id="path4191"
         d="M 0,0 5,-5 -12.5,0 5,5 0,0 Z"
         style="fill:#000000;fill-opacity:1;fill-rule:evenodd;stroke:#000000;stroke-width:1pt;stroke-opacity:1"
         transform="matrix(0.4,0,0,0.4,4,0)"
         inkscape:connector-curvature="0" />
    </marker>
    <linearGradient
       y2="228.2177"
       x2="223.6167"
       y1="166.2236"
       x1="223.6167"
       gradientUnits="userSpaceOnUse"
       id="SVGID_2_"
       gradientTransform="translate(405.03952,235.75369)">
      <stop
         id="stop3925"
         style="stop-color:#F8BB5E"
         offset="0" />
      <stop
         id="stop3927"
         style="stop-color:#FF931E"
         offset="1" />
    </linearGradient>
  </defs>
  <sodipodi:namedview
     id="base"
     pagecolor="#ffffff"
     bordercolor="#666666"
     borderopacity="1.0"
     inkscape:pageopacity="0.0"
     inkscape:pageshadow="2"
     inkscape:zoom="1.4142136"
     inkscape:cx="258.25512"
     inkscape:cy="188.94427"
     inkscape:document-units="px"
     inkscape:current-layer="layer1"
     showgrid="false"
     inkscape:window-width="1920"
     inkscape:window-height="1016"
     inkscape:window-x="1920"
     inkscape:window-y="27"
     inkscape:window-maximized="1"
     fit-margin-top="5"
     fit-margin-left="5"
     fit-margin-bottom="5"
     fit-margin-right="5" />
  <metadata
     id="metadata7">
    <rdf:RDF>
      <cc:Work
         rdf:about="">
        <dc:format>image/svg+xml</dc:format>
        <dc:type
           rdf:resource="http://purl.org/dc/dcmitype/StillImage" />
        <dc:title></dc:title>
      </cc:Work>
    </rdf:RDF>
  </metadata>
  <g
     inkscape:label="レイヤー 1"
     inkscape:groupmode="layer"
     id="layer1"
     transform="translate(-29.766222,-233.11521)">
    <text
       xml:space="preserve"
       style="font-style:normal;font-variant:normal;font-weight:normal;font-stretch:normal;font-size:20px;line-height:125%;font-family:'DejaVu Sans';-inkscape-font-specification:'DejaVu Sans, Normal';text-align:start;letter-spacing:0px;word-spacing:0px;writing-mode:lr-tb;text-anchor:start;fill:#008bb9;fill-opacity:1;stroke:none;stroke-width:1px;stroke-linecap:butt;stroke-linejoin:miter;stroke-opacity:1;"
       x="59.309708"
       y="312.28235"
       id="text4138"
       sodipodi:linespacing="125%"><tspan
         sodipodi:role="line"
         id="tspan4140"
         x="59.309708"
         y="312.28235">PostgreSQL</tspan></text>
    <text
       xml:space="preserve"
       style="font-style:normal;font-weight:normal;font-size:20px;line-height:125%;font-family:sans-serif;letter-spacing:0px;word-spacing:0px;fill:#000000;fill-opacity:1;stroke:none;stroke-width:1px;stroke-linecap:butt;stroke-linejoin:miter;stroke-opacity:1"
       x="173.35533"
       y="265.63174"
       id="text4165"
       sodipodi:linespacing="125%"><tspan
         sodipodi:role="line"
         id="tspan4167"
         x="173.35533"
         y="265.63174">SQL</tspan></text>
    <text
       xml:space="preserve"
       style="font-style:normal;font-weight:normal;font-size:20px;line-height:125%;font-family:sans-serif;letter-spacing:0px;word-spacing:0px;fill:#000000;fill-opacity:1;stroke:none;stroke-width:1px;stroke-linecap:butt;stroke-linejoin:miter;stroke-opacity:1"
       x="234.82338"
       y="362.65512"
       id="text4169"
       sodipodi:linespacing="125%"><tspan
         sodipodi:role="line"
         id="tspan4171"
         x="234.82338"
         y="362.65512">insert/search/...</tspan></text>
    <text
       xml:space="preserve"
       style="font-style:normal;font-weight:normal;font-size:20px;line-height:125%;font-family:sans-serif;text-align:center;letter-spacing:0px;word-spacing:0px;text-anchor:middle;fill:#000000;fill-opacity:1;stroke:none;stroke-width:1px;stroke-linecap:butt;stroke-linejoin:miter;stroke-opacity:1"
       x="304.73743"
       y="400.86221"
       id="text4173"
       sodipodi:linespacing="125%"><tspan
         sodipodi:role="line"
         x="304.73743"
         y="400.86221"
         id="tspan4489">インデックスAM</tspan><tspan
         sodipodi:role="line"
         x="304.73743"
         y="428.17426"
         id="tspan4177" /></text>
    <text
       xml:space="preserve"
       style="font-style:normal;font-weight:normal;font-size:20px;line-height:125%;font-family:sans-serif;letter-spacing:0px;word-spacing:0px;fill:#000000;fill-opacity:1;stroke:none;stroke-width:1px;stroke-linecap:butt;stroke-linejoin:miter;stroke-opacity:1"
       x="200.22539"
       y="313.36221"
       id="text4495"
       sodipodi:linespacing="125%"><tspan
         sodipodi:role="line"
         x="200.22539"
         y="313.36221"
         id="tspan4387">インデックス関連だけ</tspan><tspan
         sodipodi:role="line"
         x="200.22539"
         y="338.36221"
         id="tspan4391">インデックスAMへ</tspan></text>
    <text
       sodipodi:linespacing="125%"
       id="text4823"
       y="439.65414"
       x="196.92924"
       style="font-style:normal;font-weight:normal;font-size:20px;line-height:125%;font-family:sans-serif;letter-spacing:0px;word-spacing:0px;fill:#000000;fill-opacity:1;stroke:none;stroke-width:1px;stroke-linecap:butt;stroke-linejoin:miter;stroke-opacity:1"
       xml:space="preserve"><tspan
         y="439.65414"
         x="196.92924"
         id="tspan4825"
         sodipodi:role="line">GIN</tspan></text>
    <text
       xml:space="preserve"
       style="font-style:normal;font-weight:normal;font-size:20px;line-height:125%;font-family:sans-serif;letter-spacing:0px;word-spacing:0px;fill:#000000;fill-opacity:1;stroke:none;stroke-width:1px;stroke-linecap:butt;stroke-linejoin:miter;stroke-opacity:1"
       x="246.46227"
       y="435.31531"
       id="text4827"
       sodipodi:linespacing="125%"><tspan
         sodipodi:role="line"
         id="tspan4829"
         x="246.46227"
         y="435.31531">...</tspan></text>
    <rect
       y="413.27939"
       x="190.93445"
       height="38.894867"
       width="46.215725"
       id="rect4842"
       style="fill:none;fill-opacity:1;stroke:#5382a1;stroke-width:3;stroke-miterlimit:4;stroke-dasharray:none;stroke-opacity:1"
       ry="5"
       rx="5" />
    <rect
       rx="5"
       ry="5"
       y="413.27939"
       x="280.93503"
       height="38.894867"
       width="129.65433"
       id="rect4853"
       style="fill:none;fill-opacity:1;stroke:#5382a1;stroke-width:3;stroke-miterlimit:4;stroke-dasharray:none;stroke-opacity:1" />
    <rect
       style="fill:none;fill-opacity:1;stroke:#008bb9;stroke-width:3;stroke-miterlimit:4;stroke-dasharray:none;stroke-opacity:1"
       id="rect4136"
       width="361.58536"
       height="164.0229"
       x="48.982758"
       y="288.15137"
       ry="5"
       rx="5" />
    <path
       style="fill:none;fill-rule:evenodd;stroke:#000000;stroke-width:1px;stroke-linecap:butt;stroke-linejoin:miter;stroke-opacity:1;marker-end:url(#Arrow1Mend)"
       d="m 188.45763,273.30333 0,80.27386 34.35813,0.36218 -0.26688,17.36217"
       id="path4179"
       inkscape:connector-curvature="0"
       sodipodi:nodetypes="cccc" />
    <rect
       rx="5"
       ry="5"
       y="375.83261"
       x="190.66817"
       height="76.341644"
       width="219.89995"
       id="rect5058"
       style="fill:none;fill-opacity:1;stroke:#5382a1;stroke-width:3;stroke-miterlimit:4;stroke-dasharray:none;stroke-opacity:1" />
    <rect
       rx="5"
       ry="5"
       style="fill:none;fill-opacity:1;stroke:#5382a1;stroke-width:3;stroke-miterlimit:4;stroke-dasharray:none;stroke-opacity:1"
       id="rect5069"
       width="41.265976"
       height="38.894867"
       x="238.31059"
       y="413.27939" />
    <text
       xml:space="preserve"
       style="font-style:normal;font-weight:normal;font-size:12.5px;line-height:125%;font-family:sans-serif;letter-spacing:0px;word-spacing:0px;fill:#000000;fill-opacity:1;stroke:none;stroke-width:1px;stroke-linecap:butt;stroke-linejoin:miter;stroke-opacity:1"
       x="233.2662"
       y="260.39081"
       id="text4393"
       sodipodi:linespacing="125%"><tspan
         sodipodi:role="line"
         id="tspan4395"
         x="233.2662"
         y="260.39081">インデックスAM =</tspan><tspan
         sodipodi:role="line"
         x="233.2662"
         y="277.46082"
         id="tspan4397">インデックスアクセスメソッド</tspan></text>
    <g
       id="g4614"
       transform="matrix(0.44543498,0,0,0.44543498,295.41673,414.41951)">
      <path
         id="path4616"
         d="m 78.954,25.236 c -1.336,-0.289 -2.281,-0.447 -3.442,-0.447 -2.847,0 -5.33,0.831 -7.391,2.468 -0.091,0.06 -0.192,0.14 -0.303,0.245 -0.231,0.197 -0.452,0.406 -0.668,0.621 -1.479,1.314 -2.761,1.952 -2.761,-1.234 l 0,-0.666 c 0,-0.404 -0.327,-0.732 -0.731,-0.732 l -2.102,0 c -0.197,0 -0.388,0.08 -0.524,0.223 -0.14,0.143 -0.212,0.335 -0.206,0.532 0.104,3.333 0.215,6.778 0.215,9.621 l 0,18.75 c 0,0.403 0.328,0.731 0.731,0.731 l 2.21,0 c 0.403,0 0.731,-0.328 0.731,-0.731 l 0,-9.914 c 0,-1.37 0.107,-3.806 0.309,-4.813 1.57,-7.799 4.983,-11.59 10.436,-11.59 0.979,0 1.881,0.165 2.874,0.363 0.048,0.011 0.096,0.016 0.144,0.016 0.148,0 0.294,-0.045 0.417,-0.132 0.163,-0.112 0.273,-0.288 0.307,-0.483 l 0.322,-1.994 c 0.062,-0.385 -0.187,-0.752 -0.568,-0.834 z"
         inkscape:connector-curvature="0"
         style="fill:#030000" />
      <path
         id="path4618"
         d="m 168,26.828 c -2.512,-1.774 -5.292,-2.04 -6.726,-2.04 -2.91,0 -5.648,0.912 -7.822,2.495 -0.005,0.004 -0.01,0.005 -0.015,0.009 -1.004,0.648 -2.627,0.909 -2.617,-0.625 l 0,-0.021 c 0.002,-0.106 -0.003,-0.198 -0.014,-0.276 l -0.008,-0.183 c -0.019,-0.391 -0.34,-0.697 -0.73,-0.697 l -2.103,0 c -0.203,0 -0.396,0.084 -0.535,0.232 -0.138,0.147 -0.209,0.346 -0.194,0.549 0.151,2.279 0.214,4.17 0.214,6.523 l 0,21.821 c 0,0.403 0.328,0.731 0.73,0.731 l 2.209,0 c 0.404,0 0.732,-0.328 0.732,-0.731 l 0,-17.51 c 0,-0.813 0.253,-1.762 0.49,-2.377 0.004,-0.008 0.006,-0.019 0.01,-0.026 1.043,-3.042 4.224,-6.12 8.417,-6.476 3.236,0.002 8.327,2.358 9.023,8.227 0.017,0.15 0.03,0.299 0.042,0.443 0.005,0.049 0.009,0.1 0.012,0.149 0.005,0.07 0.009,0.14 0.014,0.209 0.009,0.19 0.015,0.384 0.015,0.582 0,0.335 0.007,0.638 0.018,0.911 l 0,15.869 c 0,0.404 0.328,0.73 0.732,0.73 l 2.208,0 c 0.404,0 0.732,-0.328 0.732,-0.73 l 0,-16.271 C 172.835,32.97 171.208,29.097 168,26.828 Z"
         inkscape:connector-curvature="0"
         style="fill:#030000" />
      <path
         id="path4620"
         d="m 244.224,52.17 c -0.133,-0.112 -0.301,-0.174 -0.473,-0.174 -0.04,0 -0.08,0.003 -0.12,0.01 -0.587,0.099 -0.965,0.099 -1.441,0.099 -1.147,0 -2.178,-0.336 -2.178,-4.387 l 0,-9.914 c 0,-2.343 -0.179,-5.367 -1.583,-7.972 -1.821,-3.382 -5.181,-5.099 -9.978,-5.099 -2.476,0 -6.217,0.517 -9.99,2.975 -0.315,0.205 -0.422,0.615 -0.25,0.949 l 0.861,1.67 c 0.098,0.189 0.271,0.326 0.478,0.375 0.059,0.014 0.116,0.021 0.173,0.021 0.151,0 0.3,-0.047 0.425,-0.136 2.313,-1.639 5.186,-2.504 8.305,-2.504 3.995,0 6.004,1.854 7,3.938 l 0,0 c 1.004,2.222 -0.562,4.404 -2.285,4.584 -0.085,0.006 -0.17,0.009 -0.254,0.014 -0.014,0 -0.028,10e-4 -0.042,0 -0.055,-10e-4 -0.102,0.003 -0.144,0.009 -10.978,0.626 -16.537,4.313 -16.537,10.979 0,2.027 0.803,4.058 2.201,5.57 1.233,1.332 3.561,2.92 7.636,2.92 3.471,0 6.271,-1.111 8.324,-2.472 0.062,-0.03 0.131,-0.075 0.212,-0.142 0.022,-0.016 0.042,-0.03 0.063,-0.047 0.128,-0.088 0.256,-0.178 0.378,-0.269 1.275,-0.825 1.969,-0.351 2.623,0.504 0.002,0.003 0.006,0.005 0.008,0.007 0.84,1.141 2.161,1.719 3.962,1.719 0.847,0 1.592,-0.094 2.345,-0.295 0.319,-0.084 0.543,-0.375 0.543,-0.707 l 0,-1.67 c -0.002,-0.21 -0.098,-0.415 -0.262,-0.555 z m -18.252,0.528 c -3.042,0 -6.11,-1.724 -6.11,-5.572 0,-4.862 5.936,-6.58 12.167,-7.043 2.319,-0.043 4.097,2.162 4.311,4.575 l 0,0.988 c -0.062,0.647 -0.246,1.289 -0.568,1.889 -0.161,0.263 -0.355,0.556 -0.589,0.863 -0.04,0.047 -0.074,0.094 -0.103,0.135 -1.443,1.847 -4.224,4.165 -9.108,4.165 z"
         inkscape:connector-curvature="0"
         style="fill:#030000" />
      <path
         id="path4622"
         d="m 50.245,25.488 -2.047,0 c -0.393,0 -0.715,0.312 -0.731,0.703 -0.064,1.619 -0.892,1.836 -2.704,0.767 -0.01,-0.006 -0.018,-0.015 -0.025,-0.019 -0.179,-0.119 -0.361,-0.231 -0.545,-0.34 -0.012,-0.006 -0.021,-0.012 -0.032,-0.02 -0.088,-0.059 -0.169,-0.104 -0.245,-0.141 -1.982,-1.096 -4.306,-1.649 -6.923,-1.649 -3.739,0 -7.429,1.548 -10.122,4.25 -2.083,2.087 -4.564,5.826 -4.564,11.784 0,3.818 1.348,7.412 3.792,10.121 2.595,2.875 6.234,4.459 10.249,4.459 3.11,0 5.515,-0.819 7.334,-1.897 0.004,-0.002 0.008,-0.003 0.013,-0.005 1.952,-0.873 3.601,-2.182 3.135,2.232 -0.875,5.678 -4.52,8.765 -10.482,8.765 -4.175,0 -7.31,-1.403 -9.204,-2.583 -0.116,-0.072 -0.251,-0.109 -0.387,-0.109 -0.061,0 -0.122,0.008 -0.182,0.022 -0.193,0.049 -0.358,0.176 -0.456,0.351 l -0.969,1.725 c -0.189,0.336 -0.086,0.761 0.236,0.972 2.853,1.863 6.909,2.976 10.854,2.976 2.69,0 9.293,-0.625 12.494,-6.412 1.384,-2.481 2.029,-5.969 2.029,-10.969 l 0,-17.458 c 0,-2.474 0.07,-4.679 0.214,-6.738 0.015,-0.201 -0.057,-0.401 -0.194,-0.549 -0.141,-0.153 -0.335,-0.238 -0.538,-0.238 z M 33.353,51.517 C 32.749,51.277 25.745,48.3 26.34,39.705 c 0.551,-7.946 5.723,-10.459 6.519,-10.798 1.277,-0.5 2.699,-0.77 4.24,-0.77 1.664,0 3.112,0.327 4.354,0.873 6.846,3.871 7.696,16.453 0.885,21.467 -1.592,1 -3.437,1.574 -5.346,1.574 -1.342,10e-4 -2.553,-0.194 -3.639,-0.534 z"
         inkscape:connector-curvature="0"
         style="fill:#030000" />
      <path
         id="path4624"
         d="m 208.092,25.488 -2.047,0 c -0.393,0 -0.716,0.312 -0.731,0.703 -0.065,1.619 -0.892,1.836 -2.702,0.767 -0.01,-0.005 -0.019,-0.015 -0.027,-0.019 -0.178,-0.119 -0.362,-0.231 -0.546,-0.34 -0.011,-0.008 -0.021,-0.014 -0.031,-0.02 -0.087,-0.059 -0.168,-0.104 -0.244,-0.139 -1.981,-1.098 -4.307,-1.651 -6.924,-1.651 -3.739,0 -7.429,1.548 -10.122,4.25 -2.082,2.087 -4.563,5.826 -4.563,11.784 0,3.818 1.346,7.412 3.792,10.121 2.595,2.875 6.233,4.459 10.248,4.459 3.11,0 5.514,-0.819 7.335,-1.897 0.004,-0.002 0.007,-0.003 0.012,-0.005 1.954,-0.874 3.603,-2.184 3.135,2.232 -0.875,5.679 -4.519,8.765 -10.481,8.765 -4.176,0 -7.311,-1.403 -9.204,-2.583 -0.118,-0.072 -0.251,-0.109 -0.388,-0.109 -0.06,0 -0.122,0.008 -0.182,0.022 -0.193,0.049 -0.358,0.176 -0.456,0.351 l -0.97,1.725 c -0.189,0.336 -0.085,0.761 0.236,0.972 2.854,1.863 6.91,2.976 10.854,2.976 2.688,0 9.293,-0.625 12.493,-6.412 1.385,-2.481 2.031,-5.969 2.031,-10.969 l 0,-17.458 c 0,-2.474 0.069,-4.679 0.214,-6.738 0.014,-0.201 -0.058,-0.401 -0.195,-0.549 -0.139,-0.153 -0.333,-0.238 -0.537,-0.238 z m -16.891,26.029 c -0.605,-0.24 -7.609,-3.217 -7.014,-11.812 0.552,-7.94 5.717,-10.455 6.518,-10.798 1.278,-0.5 2.701,-0.77 4.242,-0.77 1.665,0 3.112,0.327 4.354,0.873 6.845,3.871 7.696,16.453 0.884,21.467 -1.592,1 -3.436,1.574 -5.345,1.574 -1.343,10e-4 -2.553,-0.194 -3.639,-0.534 z"
         inkscape:connector-curvature="0"
         style="fill:#030000" />
      <linearGradient
         gradientTransform="matrix(1,0,0,-1,-279.2305,-111.2632)"
         y2="-176.4133"
         x2="390.90091"
         y1="-115.3889"
         x1="390.90091"
         gradientUnits="userSpaceOnUse"
         id="SVGID_1_">
        <stop
           id="stop4627"
           style="stop-color:#5795C6"
           offset="0" />
        <stop
           id="stop4629"
           style="stop-color:#0B3F63"
           offset="1" />
      </linearGradient>
      <path
         id="path4631"
         d="m 109.318,11.263 c -2.338,2.336 -4.109,5.342 -5.032,8.654 -6.076,-0.093 -12.171,2.273 -17.007,7.109 -8.143,8.142 -10.675,22.914 0.667,34.254 9.542,9.543 23.793,9.688 33.145,0.332 4.42,-4.424 7.236,-10.506 7.297,-16.939 3.14,-0.835 6.124,-2.507 8.669,-5.049 6.956,-6.959 9.086,-18.919 -0.311,-28.318 -7.832,-7.83 -19.625,-7.847 -27.428,-0.043 z m 25.621,20.422 c -1.335,1.338 -3.045,2.324 -4.932,2.864 -3.027,0.867 -4.656,0.777 -5.697,2.515 -1.041,1.735 -0.926,1.94 -0.881,5.195 0.057,3.688 -1.332,7.512 -4.813,10.994 -5.32,5.318 -15.14,6.504 -22.366,-0.721 -5.693,-5.694 -8.365,-15.278 -0.778,-22.865 2.816,-2.813 6.866,-4.477 11.124,-4.402 2.961,0.053 3.307,0.162 5.212,-0.703 1.909,-0.869 1.082,-2.799 2.223,-6.205 0.556,-1.66 1.544,-3.295 3.091,-4.844 4.127,-4.127 11.721,-5.072 17.285,0.49 4.534,4.535 6.456,11.76 0.532,17.682 z"
         inkscape:connector-curvature="0"
         style="fill:url(#SVGID_1_)" />
      <path
         id="path4633"
         d="m 0.388,24.795 c -2.915,0 -5.501,0.671 -7.686,1.991 -0.526,0.318 -1.027,0.676 -1.5,1.068 -1.114,1.113 -2.128,2.432 -2.128,0.062 0,-0.817 -0.077,-1.722 -0.077,-1.722 -0.018,-0.39 -0.34,-0.697 -0.73,-0.697 l -2.156,0 c -0.201,0 -0.393,0.081 -0.531,0.227 -0.139,0.146 -0.211,0.343 -0.199,0.543 0.146,2.73 0.214,5.611 0.214,9.066 l 0,31.139 c 0,0.404 0.327,0.731 0.731,0.731 l 2.209,0 c 0.404,0 0.732,-0.327 0.732,-0.731 0,0 0,-9.742 0,-11.516 0,-1.774 0.603,-2.513 2.086,-1.485 2.325,1.61 5.169,2.581 8.389,2.581 4.086,0 7.805,-1.507 10.469,-4.242 2.863,-2.938 4.377,-7.089 4.377,-12.007 0,-4.005 -1.338,-7.725 -3.766,-10.471 C 8.196,26.365 4.589,24.795 0.388,24.795 Z m -0.647,27.961 c -4.727,0 -9.07,-3.237 -10.173,-7.206 -1.103,-3.969 -0.402,-7.971 0.204,-9.89 1.453,-4.598 5.514,-7.569 10.346,-7.569 7.088,0 10.797,5.946 10.797,11.821 0,7.923 -4.281,12.844 -11.174,12.844 z"
         inkscape:connector-curvature="0"
         style="fill:#040000" />
    </g>
    <path
       style="fill:none;fill-rule:evenodd;stroke:#000000;stroke-width:1;stroke-linecap:butt;stroke-linejoin:miter;stroke-miterlimit:4;stroke-dasharray:1, 2;stroke-dashoffset:0;stroke-opacity:1;marker-end:url(#marker8735)"
       d="m 188.13357,353.57357 -28.09798,0"
       id="path4933"
       inkscape:connector-curvature="0"
       sodipodi:nodetypes="cc" />
    <text
       sodipodi:linespacing="125%"
       id="text9291"
       y="348.71756"
       x="60.907589"
       style="font-style:normal;font-weight:normal;font-size:20px;line-height:125%;font-family:sans-serif;letter-spacing:0px;word-spacing:0px;fill:#000000;fill-opacity:1;stroke:none;stroke-width:1px;stroke-linecap:butt;stroke-linejoin:miter;stroke-opacity:1"
       xml:space="preserve"><tspan
         id="tspan9295"
         y="348.71756"
         x="60.907589"
         sodipodi:role="line">それ以外は</tspan><tspan
         y="373.71756"
         x="60.907589"
         sodipodi:role="line"
         id="tspan9299">他で処理</tspan></text>
  </g>
</svg>
